# xmcd CD database file
#
# Track frame offsets:
#	187
#	27947
#	52362
#	79460
#
# Disc length: 1344 seconds
#
# Revision: 0
# Processed by: cddbd v1.5.1PL0 Copyright (c) Steve Scherf et al.
# Submitted via: CDex 1.51
#
DISCID=34053e04
DTITLE=笠原弘子 - もういちど Love you
DYEAR=1992
DGENRE=Japanese Pop
TTITLE0=もういちど Love you
TTITLE1=約束
TTITLE2=もういちど Love you(オリジナル・カラオケ)
TTITLE3=約束(オリジナル・カラオケ)
EXTD=YEAR: 1992
EXTT0=
EXTT1=
EXTT2=
EXTT3=
PLAYORDER=
